<svg width="144" height="33" viewBox="0 0 144 33" fill="none" xmlns="http://www.w3.org/2000/svg">
<path d="M10.6099 31.872C8.73425 31.872 7.31136 31.3482 6.34121 30.3006C5.37106 29.2212 4.88599 27.9037 4.88599 26.3482C4.88599 24.8561 5.30638 23.3164 6.14718 21.7291C6.98798 20.1101 8.26534 18.6022 9.97927 17.2053C11.7255 15.8085 13.9084 14.7133 16.5278 13.9196C15.5576 13.8244 14.6036 13.5704 13.6658 13.1577C12.728 12.7133 11.9357 12.1418 11.289 11.4434C10.6745 10.7133 10.3673 9.88787 10.3673 8.96724C10.3673 8.26882 10.5775 7.55454 10.9979 6.82438C11.4507 5.96724 12.1459 5.26882 13.0837 4.72914C14.0539 4.15771 15.1372 3.72914 16.3337 3.44343C17.5626 3.12597 18.7591 2.96724 19.9233 2.96724C21.0228 2.96724 21.9444 3.12597 22.6882 3.44343C23.432 3.76089 24.0141 4.11009 24.4345 4.49105C25.0166 3.50692 25.6957 2.82438 26.4718 2.44343C27.2479 2.06248 27.9755 1.872 28.6546 1.872C29.3014 1.872 29.835 1.99898 30.2554 2.25295C30.6758 2.50692 30.886 2.80851 30.886 3.15771C30.886 3.44343 30.7243 3.69739 30.4009 3.91962C29.7218 4.42755 29.1397 4.93549 28.6546 5.44343C28.1696 5.91962 27.7492 6.37994 27.3934 6.82438C26.682 7.77676 26.0029 8.872 25.3561 10.1101C24.7094 11.3482 24.3213 12.6339 24.192 13.9672C23.7069 14.126 23.3512 13.9514 23.1248 13.4434C22.9308 12.9037 22.8337 12.2212 22.8337 11.3958C22.8337 10.6022 22.8984 9.76089 23.0278 8.872C23.1895 7.95136 23.3997 7.09422 23.6584 6.30057C23.529 6.26883 23.3835 6.25295 23.2218 6.25295C23.0601 6.25295 22.8984 6.25295 22.7367 6.25295C22.1546 6.25295 21.5402 6.33232 20.8934 6.49105C20.2467 6.61803 19.5676 6.85613 18.8561 7.20533C18.4681 7.39581 18.0315 7.6974 17.5464 8.11009C17.0937 8.52279 16.6895 8.99898 16.3337 9.53867C16.0104 10.0783 15.8487 10.618 15.8487 11.1577C15.8487 11.6022 16.0104 12.0466 16.3337 12.491C16.6895 12.9037 17.3039 13.2688 18.177 13.5863C18.7591 13.618 19.3089 13.9355 19.8263 14.5387C20.376 15.1101 20.6509 15.6657 20.6509 16.2053C20.6509 16.6815 20.4245 17.0149 19.9718 17.2053C17.9992 17.9037 16.2691 18.8879 14.7815 20.1577C13.3263 21.4276 12.1944 22.745 11.386 24.1101C10.6099 25.4752 10.2218 26.6657 10.2218 27.6815C10.2218 28.3482 10.3997 28.8879 10.7554 29.3006C11.1434 29.7133 11.7417 29.9196 12.5502 29.9196C13.4556 29.9196 14.4581 29.5863 15.5576 28.9196C16.6571 28.2212 17.7566 27.3482 18.8561 26.3006C19.9556 25.2212 20.9581 24.1101 21.8636 22.9672C22.7691 21.7926 23.4967 20.7133 24.0464 19.7291C24.2081 19.7609 24.4345 19.7768 24.7255 19.7768C25.0489 19.7768 25.3238 19.8561 25.5502 20.0149C25.8089 20.1418 25.9382 20.4117 25.9382 20.8244C25.9382 21.1418 25.825 21.5704 25.5987 22.1101C25.3723 22.6498 24.9842 23.3482 24.4345 24.2053C23.7231 25.2847 22.8014 26.3006 21.6696 27.253C20.5377 28.1736 19.325 28.9831 18.0315 29.6815C16.738 30.3799 15.4444 30.9196 14.1509 31.3006C12.8574 31.6815 11.677 31.872 10.6099 31.872Z" fill="url(#paint0_linear_2010_50)"/>
<path d="M130.591 27.9171C129.018 27.9171 127.602 27.573 126.344 26.8848C125.085 26.177 124.092 25.1841 123.365 23.906C122.657 22.628 122.303 21.1534 122.303 19.4821C122.303 17.8109 122.667 16.3362 123.394 15.0582C124.141 13.7802 125.154 12.7971 126.432 12.1089C127.71 11.4011 129.136 11.0472 130.709 11.0472C132.282 11.0472 133.707 11.4011 134.985 12.1089C136.263 12.7971 137.266 13.7802 137.993 15.0582C138.74 16.3362 139.114 17.8109 139.114 19.4821C139.114 21.1534 138.731 22.628 137.964 23.906C137.217 25.1841 136.194 26.177 134.897 26.8848C133.619 27.573 132.183 27.9171 130.591 27.9171ZM130.591 24.3189C131.338 24.3189 132.036 24.142 132.685 23.7881C133.353 23.4145 133.884 22.864 134.277 22.1365C134.67 21.409 134.867 20.5242 134.867 19.4821C134.867 17.9288 134.454 16.7393 133.628 15.9135C132.822 15.068 131.829 14.6453 130.65 14.6453C129.47 14.6453 128.477 15.068 127.671 15.9135C126.884 16.7393 126.491 17.9288 126.491 19.4821C126.491 21.0354 126.874 22.2348 127.641 23.0802C128.428 23.906 129.411 24.3189 130.591 24.3189Z" fill="#111111"/>
<path d="M102.285 19.4231C102.285 17.7715 102.61 16.3067 103.259 15.0287C103.927 13.7507 104.831 12.7676 105.972 12.0794C107.112 11.3912 108.38 11.0472 109.776 11.0472C110.838 11.0472 111.851 11.2831 112.814 11.755C113.778 12.2072 114.544 12.8167 115.115 13.5835V5.82693H119.303V27.6516H115.115V25.2332C114.603 26.0394 113.886 26.6882 112.962 27.1797C112.038 27.6713 110.966 27.9171 109.747 27.9171C108.371 27.9171 107.112 27.5632 105.972 26.8553C104.831 26.1475 103.927 25.1546 103.259 23.8765C102.61 22.5789 102.285 21.0944 102.285 19.4231ZM115.144 19.4821C115.144 18.4794 114.948 17.6241 114.554 16.9162C114.161 16.1887 113.63 15.6382 112.962 15.2646C112.293 14.8714 111.576 14.6748 110.809 14.6748C110.042 14.6748 109.334 14.8616 108.685 15.2351C108.036 15.6087 107.506 16.1593 107.093 16.8867C106.699 17.5946 106.503 18.44 106.503 19.4231C106.503 20.4062 106.699 21.2713 107.093 22.0185C107.506 22.746 108.036 23.3064 108.685 23.6996C109.354 24.0928 110.062 24.2894 110.809 24.2894C111.576 24.2894 112.293 24.1027 112.962 23.7291C113.63 23.3358 114.161 22.7853 114.554 22.0775C114.948 21.35 115.144 20.4849 115.144 19.4821Z" fill="#111111"/>
<path d="M95.5521 13.849C96.083 12.9839 96.7711 12.3055 97.6166 11.814C98.4817 11.3224 99.4648 11.0767 100.566 11.0767V15.4121H99.4746C98.177 15.4121 97.1939 15.7169 96.5254 16.3264C95.8765 16.9359 95.5521 17.9976 95.5521 19.5116V27.6516H91.4231V11.3126H95.5521V13.849Z" fill="#111111"/>
<path d="M70.3729 19.4231C70.3729 17.7715 70.6973 16.3067 71.3462 15.0287C72.0147 13.7507 72.9093 12.7676 74.03 12.0794C75.1704 11.3912 76.4386 11.0472 77.8346 11.0472C79.0537 11.0472 80.1154 11.2929 81.0198 11.7845C81.9439 12.276 82.6813 12.8954 83.2318 13.6425V11.3126H87.3903V27.6516H83.2318V25.2627C82.7009 26.0295 81.9636 26.6685 81.0198 27.1797C80.0957 27.6713 79.0242 27.9171 77.8051 27.9171C76.4288 27.9171 75.1704 27.5631 74.03 26.8553C72.9093 26.1475 72.0147 25.1546 71.3462 23.8765C70.6973 22.5789 70.3729 21.0944 70.3729 19.4231ZM83.2318 19.4821C83.2318 18.4794 83.0352 17.6241 82.6419 16.9162C82.2487 16.1887 81.7178 15.6382 81.0493 15.2646C80.3808 14.8714 79.6632 14.6748 78.8964 14.6748C78.1295 14.6748 77.4217 14.8616 76.7729 15.2351C76.124 15.6087 75.5932 16.1593 75.1803 16.8867C74.787 17.5946 74.5904 18.44 74.5904 19.4231C74.5904 20.4062 74.787 21.2713 75.1803 22.0185C75.5932 22.746 76.124 23.3064 76.7729 23.6996C77.4414 24.0928 78.1492 24.2894 78.8964 24.2894C79.6632 24.2894 80.3808 24.1027 81.0493 23.7291C81.7178 23.3358 82.2487 22.7853 82.6419 22.0775C83.0352 21.35 83.2318 20.4849 83.2318 19.4821Z" fill="#111111"/>
<path d="M67.3609 11.3126V27.6516H63.2024V25.5871C62.6716 26.295 61.9736 26.8553 61.1084 27.2682C60.263 27.6615 59.3389 27.8581 58.3361 27.8581C57.0581 27.8581 55.9275 27.5926 54.9444 27.0618C53.9613 26.5112 53.1847 25.7149 52.6145 24.6728C52.064 23.6111 51.7887 22.3527 51.7887 20.8978V11.3126H55.9177V20.3079C55.9177 21.6056 56.2421 22.6083 56.891 23.3162C57.5398 24.0043 58.4246 24.3484 59.5453 24.3484C60.6857 24.3484 61.5803 24.0043 62.2292 23.3162C62.878 22.6083 63.2024 21.6056 63.2024 20.3079V11.3126H67.3609Z" fill="#111111"/>
<path d="M30.886 19.4231C30.886 17.7715 31.2104 16.3067 31.8592 15.0287C32.5278 13.7507 33.4322 12.7676 34.5726 12.0794C35.713 11.3912 36.9812 11.0472 38.3772 11.0472C39.4389 11.0472 40.4515 11.2831 41.4149 11.755C42.3784 12.2072 43.1452 12.8167 43.7154 13.5835V5.82693H47.9034V27.6516H43.7154V25.2332C43.2042 26.0394 42.4865 26.6882 41.5624 27.1797C40.6383 27.6713 39.5667 27.9171 38.3477 27.9171C36.9713 27.9171 35.713 27.5632 34.5726 26.8553C33.4322 26.1475 32.5278 25.1546 31.8592 23.8765C31.2104 22.5789 30.886 21.0944 30.886 19.4231ZM43.7449 19.4821C43.7449 18.4794 43.5482 17.6241 43.155 16.9162C42.7618 16.1887 42.2309 15.6382 41.5624 15.2646C40.8939 14.8714 40.1762 14.6748 39.4094 14.6748C38.6426 14.6748 37.9348 14.8616 37.2859 15.2351C36.6371 15.6087 36.1062 16.1593 35.6933 16.8867C35.3001 17.5946 35.1035 18.44 35.1035 19.4231C35.1035 20.4062 35.3001 21.2713 35.6933 22.0185C36.1062 22.746 36.6371 23.3064 37.2859 23.6996C37.9544 24.0928 38.6623 24.2894 39.4094 24.2894C40.1762 24.2894 40.8939 24.1027 41.5624 23.7291C42.2309 23.3358 42.7618 22.7853 43.155 22.0775C43.5482 21.35 43.7449 20.4849 43.7449 19.4821Z" fill="#111111"/>
<defs>
<linearGradient id="paint0_linear_2010_50" x1="17.886" y1="31.872" x2="17.0998" y2="1.89262" gradientUnits="userSpaceOnUse">
<stop stop-color="#0055CC"/>
<stop offset="1" stop-color="#0088FF"/>
</linearGradient>
</defs>
</svg>
