<svg width="32" height="32" viewBox="0 0 32 32" fill="none" xmlns="http://www.w3.org/2000/svg">
<g clip-path="url(#clip0_259_23)">
<rect width="32" height="32" rx="16" fill="white"/>
<path d="M13.288 23.024C12.36 23.024 11.656 22.76 11.176 22.232C10.696 21.688 10.456 21.024 10.456 20.24C10.456 19.488 10.664 18.712 11.08 17.912C11.496 17.096 12.128 16.336 12.976 15.632C13.84 14.928 14.92 14.376 16.216 13.976C15.736 13.928 15.264 13.8 14.8 13.592C14.336 13.368 13.944 13.08 13.624 12.728C13.32 12.36 13.168 11.944 13.168 11.48C13.168 11.128 13.272 10.768 13.48 10.4C13.704 9.968 14.048 9.616 14.512 9.344C14.992 9.056 15.528 8.84 16.12 8.696C16.728 8.536 17.32 8.456 17.896 8.456C18.44 8.456 18.896 8.536 19.264 8.696C19.632 8.856 19.92 9.032 20.128 9.224C20.416 8.728 20.752 8.384 21.136 8.192C21.52 8 21.88 7.904 22.216 7.904C22.536 7.904 22.8 7.968 23.008 8.096C23.216 8.224 23.32 8.376 23.32 8.552C23.32 8.696 23.24 8.824 23.08 8.936C22.744 9.192 22.456 9.448 22.216 9.704C21.976 9.944 21.768 10.176 21.592 10.4C21.24 10.88 20.904 11.432 20.584 12.056C20.264 12.68 20.072 13.328 20.008 14C19.768 14.08 19.592 13.992 19.48 13.736C19.384 13.464 19.336 13.12 19.336 12.704C19.336 12.304 19.368 11.88 19.432 11.432C19.512 10.968 19.616 10.536 19.744 10.136C19.68 10.12 19.608 10.112 19.528 10.112C19.448 10.112 19.368 10.112 19.288 10.112C19 10.112 18.696 10.152 18.376 10.232C18.056 10.296 17.72 10.416 17.368 10.592C17.176 10.688 16.96 10.84 16.72 11.048C16.496 11.256 16.296 11.496 16.12 11.768C15.96 12.04 15.88 12.312 15.88 12.584C15.88 12.808 15.96 13.032 16.12 13.256C16.296 13.464 16.6 13.648 17.032 13.808C17.32 13.824 17.592 13.984 17.848 14.288C18.12 14.576 18.256 14.856 18.256 15.128C18.256 15.368 18.144 15.536 17.92 15.632C16.944 15.984 16.088 16.48 15.352 17.12C14.632 17.76 14.072 18.424 13.672 19.112C13.288 19.8 13.096 20.4 13.096 20.912C13.096 21.248 13.184 21.52 13.36 21.728C13.552 21.936 13.848 22.04 14.248 22.04C14.696 22.04 15.192 21.872 15.736 21.536C16.28 21.184 16.824 20.744 17.368 20.216C17.912 19.672 18.408 19.112 18.856 18.536C19.304 17.944 19.664 17.4 19.936 16.904C20.016 16.92 20.128 16.928 20.272 16.928C20.432 16.928 20.568 16.968 20.68 17.048C20.808 17.112 20.872 17.248 20.872 17.456C20.872 17.616 20.816 17.832 20.704 18.104C20.592 18.376 20.4 18.728 20.128 19.16C19.776 19.704 19.32 20.216 18.76 20.696C18.2 21.16 17.6 21.568 16.96 21.92C16.32 22.272 15.68 22.544 15.04 22.736C14.4 22.928 13.816 23.024 13.288 23.024Z" fill="url(#paint0_linear_259_23)"/>
</g>
<defs>
<linearGradient id="paint0_linear_259_23" x1="15.5" y1="29" x2="14.3128" y2="5.05887" gradientUnits="userSpaceOnUse">
<stop stop-color="#0055CC"/>
<stop offset="1" stop-color="#0088FF"/>
</linearGradient>
<clipPath id="clip0_259_23">
<rect width="32" height="32" fill="white"/>
</clipPath>
</defs>
</svg>
