<svg width="32" height="32" viewBox="0 0 32 32" fill="none" xmlns="http://www.w3.org/2000/svg">
<g clip-path="url(#clip0_2010_24)">
<rect width="32" height="32" rx="16" fill="white"/>
<path d="M11.384 26.032C10.1467 26.032 9.208 25.68 8.568 24.976C7.928 24.2507 7.608 23.3653 7.608 22.32C7.608 21.3173 7.88533 20.2827 8.44 19.216C8.99467 18.128 9.83733 17.1147 10.968 16.176C12.12 15.2373 13.56 14.5013 15.288 13.968C14.648 13.904 14.0187 13.7333 13.4 13.456C12.7813 13.1573 12.2587 12.7733 11.832 12.304C11.4267 11.8133 11.224 11.2587 11.224 10.64C11.224 10.1707 11.3627 9.69067 11.64 9.2C11.9387 8.624 12.3973 8.15467 13.016 7.792C13.656 7.408 14.3707 7.12 15.16 6.928C15.9707 6.71467 16.76 6.608 17.528 6.608C18.2533 6.608 18.8613 6.71467 19.352 6.928C19.8427 7.14133 20.2267 7.376 20.504 7.632C20.888 6.97067 21.336 6.512 21.848 6.256C22.36 6 22.84 5.872 23.288 5.872C23.7147 5.872 24.0667 5.95733 24.344 6.128C24.6213 6.29867 24.76 6.50133 24.76 6.736C24.76 6.928 24.6533 7.09867 24.44 7.248C23.992 7.58933 23.608 7.93067 23.288 8.272C22.968 8.592 22.6907 8.90133 22.456 9.2C21.9867 9.84 21.5387 10.576 21.112 11.408C20.6853 12.24 20.4293 13.104 20.344 14C20.024 14.1067 19.7893 13.9893 19.64 13.648C19.512 13.2853 19.448 12.8267 19.448 12.272C19.448 11.7387 19.4907 11.1733 19.576 10.576C19.6827 9.95733 19.8213 9.38133 19.992 8.848C19.9067 8.82667 19.8107 8.816 19.704 8.816C19.5973 8.816 19.4907 8.816 19.384 8.816C19 8.816 18.5947 8.86933 18.168 8.976C17.7413 9.06133 17.2933 9.22133 16.824 9.456C16.568 9.584 16.28 9.78667 15.96 10.064C15.6613 10.3413 15.3947 10.6613 15.16 11.024C14.9467 11.3867 14.84 11.7493 14.84 12.112C14.84 12.4107 14.9467 12.7093 15.16 13.008C15.3947 13.2853 15.8 13.5307 16.376 13.744C16.76 13.7653 17.1227 13.9787 17.464 14.384C17.8267 14.768 18.008 15.1413 18.008 15.504C18.008 15.824 17.8587 16.048 17.56 16.176C16.2587 16.6453 15.1173 17.3067 14.136 18.16C13.176 19.0133 12.4293 19.8987 11.896 20.816C11.384 21.7333 11.128 22.5333 11.128 23.216C11.128 23.664 11.2453 24.0267 11.48 24.304C11.736 24.5813 12.1307 24.72 12.664 24.72C13.2613 24.72 13.9227 24.496 14.648 24.048C15.3733 23.5787 16.0987 22.992 16.824 22.288C17.5493 21.5627 18.2107 20.816 18.808 20.048C19.4053 19.2587 19.8853 18.5333 20.248 17.872C20.3547 17.8933 20.504 17.904 20.696 17.904C20.9093 17.904 21.0907 17.9573 21.24 18.064C21.4107 18.1493 21.496 18.3307 21.496 18.608C21.496 18.8213 21.4213 19.1093 21.272 19.472C21.1227 19.8347 20.8667 20.304 20.504 20.88C20.0347 21.6053 19.4267 22.288 18.68 22.928C17.9333 23.5467 17.1333 24.0907 16.28 24.56C15.4267 25.0293 14.5733 25.392 13.72 25.648C12.8667 25.904 12.088 26.032 11.384 26.032Z" fill="url(#paint0_linear_2010_24)"/>
</g>
<defs>
<linearGradient id="paint0_linear_2010_24" x1="14" y1="30" x2="13.0663" y2="6.03638" gradientUnits="userSpaceOnUse">
<stop stop-color="#0055CC"/>
<stop offset="1" stop-color="#0088FF"/>
</linearGradient>
<clipPath id="clip0_2010_24">
<rect width="32" height="32" fill="white"/>
</clipPath>
</defs>
</svg>
